<svg width="2" height="733" viewBox="0 0 2 733" fill="none" xmlns="http://www.w3.org/2000/svg">
<g clip-path="url(#clip0_40_26)">
<rect y="676" width="2" height="2" transform="rotate(-90 0 676)" fill="#117EB0"/>
<rect y="635" width="2" height="2" transform="rotate(-90 0 635)" fill="#117EB0"/>
<rect y="709" width="2" height="2" transform="rotate(-90 0 709)" fill="#117EB0"/>
<rect y="594" width="2" height="2" transform="rotate(-90 0 594)" fill="#117EB0"/>
<rect y="553" width="2" height="2" transform="rotate(-90 0 553)" fill="#117EB0"/>
<rect y="472" width="2" height="2" transform="rotate(-90 0 472)" fill="#117EB0"/>
<rect y="513" width="2" height="2" transform="rotate(-90 0 513)" fill="#117EB0"/>
<rect y="432" width="2" height="2" transform="rotate(-90 0 432)" fill="#117EB0"/>
<rect y="391" width="2" height="2" transform="rotate(-90 0 391)" fill="#117EB0"/>
<rect y="350" width="2" height="2" transform="rotate(-90 0 350)" fill="#117EB0"/>
<rect y="310" width="2" height="2" transform="rotate(-90 0 310)" fill="#117EB0"/>
<rect y="269" width="2" height="2" transform="rotate(-90 0 269)" fill="#117EB0"/>
<rect y="229" width="2" height="2" transform="rotate(-90 0 229)" fill="#117EB0"/>
<rect y="188" width="2" height="2" transform="rotate(-90 0 188)" fill="#117EB0"/>
<rect y="147" width="2" height="2" transform="rotate(-90 0 147)" fill="#117EB0"/>
<rect y="106" width="2" height="2" transform="rotate(-90 0 106)" fill="#117EB0"/>
<rect y="65" width="2" height="2" transform="rotate(-90 0 65)" fill="#117EB0"/>
<rect y="25" width="2" height="2" transform="rotate(-90 0 25)" fill="#117EB0"/>
</g>
<defs>
<clipPath id="clip0_40_26">
<rect width="733" height="2" fill="white" transform="matrix(0 -1 1 0 0 733)"/>
</clipPath>
</defs>
</svg>
